{
	"asset":{
		"generator":"Khronos glTF Blender I/O v4.4.56",
		"version":"2.0"
	},
	"scene":0,
	"scenes":[
		{
			"name":"Scene",
			"nodes":[
				0
			]
		}
	],
	"nodes":[
		{
			"mesh":0,
			"name":"Cube",
			"rotation":[
				0.00032103218836709857,
				0.0005157359992153943,
				0.005102666560560465,
				0.9999868273735046
			],
			"translation":[
				0.03510737419128418,
				-0.03745460510253906,
				0.0015767812728881836
			]
		}
	],
	"materials":[
		{
			"doubleSided":true,
			"name":"Material",
			"pbrMetallicRoughness":{
				"baseColorFactor":[
					0.800000011920929,
					0.800000011920929,
					0.800000011920929,
					1
				],
				"metallicFactor":0,
				"roughnessFactor":0.5
			}
		}
	],
	"meshes":[
		{
			"name":"Cube",
			"primitives":[
				{
					"attributes":{
						"POSITION":0,
						"NORMAL":1,
						"TEXCOORD_0":2
					},
					"indices":3,
					"material":0
				}
			]
		}
	],
	"accessors":[
		{
			"bufferView":0,
			"componentType":5126,
			"count":11728,
			"max":[
				1.4803658723831177,
				7.950498104095459,
				0.8819399476051331
			],
			"min":[
				-1.4803657531738281,
				-0.0018811763729900122,
				-0.49295759201049805
			],
			"type":"VEC3"
		},
		{
			"bufferView":1,
			"componentType":5126,
			"count":11728,
			"type":"VEC3"
		},
		{
			"bufferView":2,
			"componentType":5126,
			"count":11728,
			"type":"VEC2"
		},
		{
			"bufferView":3,
			"componentType":5123,
			"count":64512,
			"type":"SCALAR"
		}
	],
	"bufferViews":[
		{
			"buffer":0,
			"byteLength":140736,
			"byteOffset":0,
			"target":34962
		},
		{
			"buffer":0,
			"byteLength":140736,
			"byteOffset":140736,
			"target":34962
		},
		{
			"buffer":0,
			"byteLength":93824,
			"byteOffset":281472,
			"target":34962
		},
		{
			"buffer":0,
			"byteLength":129024,
			"byteOffset":375296,
			"target":34963
		}
	],
	"buffers":[
		{
			"byteLength":504320,
			"uri":"char1.bin"
		}
	]
}
